<svg width="32" height="32" viewBox="100 0 250 344" xmlns="http://www.w3.org/2000/svg">
  <defs>
    <linearGradient id="grad1" x1="187.66" y1="183.88" x2="226.94" y2="160.46" gradientUnits="userSpaceOnUse">
      <stop offset="0" stop-color="#ab1604"/>
      <stop offset="1" stop-color="#dc143c"/>
    </linearGradient>
    <linearGradient id="grad2" x1="168.44" y1="162.43" x2="177.9" y2="162.43" gradientUnits="userSpaceOnUse">
      <stop offset="0" stop-color="#6c1220"/>
      <stop offset="1" stop-color="#3c1220"/>
    </linearGradient>
  </defs>
  <!-- Circle gradient background -->
  <path fill="url(#grad1)" d="M232,162.52a16.22,16.22,0,1,1-32.43,0Z"/>
  <!-- Inner pattern -->
  <rect fill="url(#grad2)" x="168.44" y="153.06" width="9.46" height="18.75"/>
  <rect fill="url(#grad2)" x="149.51" y="153.06" width="9.46" height="18.75"/>
  <rect fill="url(#grad2)" x="187.36" y="134.13" width="9.47" height="9.46"/>
  <rect fill="url(#grad2)" x="187.36" y="115.2" width="9.47" height="9.47"/>
  <rect fill="#a90118" x="196.83" y="115.2" width="9.46" height="9.47"/>
  <rect fill="url(#grad2)" x="206.29" y="115.2" width="18.75" height="9.47"/>
  <path fill="#dc143c" d="M234.51,96.05H196.83a9.46,9.46,0,0,1,9.46-9.46h18.76a9.46,9.46,0,0,1,9.46,9.46Z"/>
  <rect fill="url(#grad2)" x="187.36" y="181.27" width="9.47" height="9.46"/>
  <rect fill="url(#grad2)" x="187.36" y="200.19" width="9.47" height="9.47"/>
  <rect fill="#a90118" x="196.83" y="200.19" width="9.46" height="9.47"/>
  <path fill="#dc143c" d="M234.51,228.53a9.46,9.46,0,0,1-9.46,9.47H206.29a9.46,9.46,0,0,1-9.46-9.47Z"/>
</svg>
